<svg width="436" height="127" viewBox="0 0 436 127" fill="none" xmlns="http://www.w3.org/2000/svg">
<path fill-rule="evenodd" clip-rule="evenodd" d="M399.786 36C403.871 36 407 38.999 407 42.8549C407 46.7108 403.761 49.8526 399.786 49.8526C395.811 49.8526 392.572 46.7108 392.572 42.8549C392.572 38.9276 395.811 36 399.786 36ZM399.786 48.4245C402.988 48.4245 405.307 45.961 405.307 42.8906C405.307 39.8202 402.951 37.3567 399.749 37.3567C396.547 37.3567 394.228 39.8202 394.228 42.8906C394.155 45.8539 396.584 48.3531 399.639 48.4245H399.786ZM397.062 46.4609V39.4989C397.946 39.356 398.829 39.2847 399.712 39.2847C401.001 39.2847 402.841 39.4989 402.841 41.3197C402.841 42.1409 402.178 42.7121 401.369 42.9263V43.0334C402.068 43.2477 402.399 43.8189 402.62 44.7115C402.73 45.3184 402.914 45.8896 403.172 46.4609H401.553C401.369 46.211 401.185 45.5683 401.001 44.7115C400.743 43.6047 400.117 43.6047 398.645 43.6047V46.4252L397.062 46.4609ZM398.645 42.5336C399.86 42.5336 401.148 42.5336 401.148 41.4625C401.148 40.8199 400.669 40.3557 399.565 40.3557C399.271 40.3557 398.939 40.3914 398.645 40.4271V42.5336ZM120.39 39.6774L103.349 89.3755H145.676L128.634 39.6774H120.39ZM112.661 83.199L124.512 48.6387L136.364 83.199H112.661ZM296.066 39.6774H289.22V89.3755H296.066V39.6774ZM309.206 49.6741C305.93 55.6008 304.347 65.0263 315.058 76.3441L315.242 76.5583C317.819 79.3074 328.787 87.2334 342 89.3755V83.199C330.48 80.9497 321.536 73.7735 320.542 72.7024L320.321 72.4882C313.586 65.3833 311.93 58.5998 315.426 52.3161L315.5 52.1733C320.211 42.3551 338.798 46.568 342 47.3535V41.0698C338.172 40.2486 334.308 39.7845 330.369 39.7131C317.009 39.5346 311.488 44.9971 309.206 49.6741ZM348.846 89.3755L365.887 39.6774H374.132L391.173 89.3755H348.846ZM370.01 48.6387L358.158 83.199H381.861L370.01 48.6387ZM181.635 50.7452C181.562 54.2798 179.758 57.5644 176.74 59.5638L190.984 89.3755H183.513L170.299 61.7773C169.968 61.813 159.294 61.813 159.294 61.813V89.3755H152.448V39.6774H169.342C176.115 39.6774 181.635 44.64 181.635 50.7452ZM159.331 55.6365H169.342C172.323 55.6365 174.753 53.4586 174.753 50.7452C174.753 48.0318 172.323 45.8539 169.342 45.8539H159.331V55.6365ZM221.791 39.6774H213.546L196.505 89.3755H238.796L221.791 39.6774ZM205.817 83.199L217.669 48.6387L229.52 83.199H205.817ZM247.482 39.6774H248.034H264.523C271.295 39.6774 276.816 44.64 276.816 50.7452C276.78 53.3872 275.786 55.8864 273.982 57.8143C276.964 59.2781 279.062 61.7059 279.282 65.7046C279.319 65.9188 279.319 66.1686 279.319 66.4184V66.4187V66.4544V69.025V69.0607C279.319 73.2736 276.964 78.2363 273.136 82.0208C269.786 85.3768 263.787 89.3755 254.365 89.3755H247.482V39.6774ZM264.56 45.8539H254.328V55.6365H264.56C267.541 55.6365 269.97 53.4586 269.97 50.7452C269.97 48.0318 267.541 45.8539 264.56 45.8539ZM254.328 83.1632C267.247 83.1632 272.473 73.2022 272.473 69.025V66.4187C272.473 66.1688 272.473 65.8831 272.436 65.6689C272.326 64.455 271.884 63.9195 271.222 63.4911C270.044 62.7056 267.21 61.813 260.658 61.813H254.328V83.1632ZM29 52.3518C29 45.3541 34.8522 39.6774 42.0662 39.6774C49.2802 39.6774 55.1324 45.3541 55.1324 52.3518C55.1324 59.3495 49.2802 65.0263 42.0662 65.0263C34.8522 65.0263 29 59.3495 29 52.3518ZM35.4043 52.3518C35.4043 55.9221 38.3856 58.814 42.0662 58.814C45.7468 58.814 48.7281 55.9221 48.7281 52.3518C48.7281 48.7815 45.7468 45.8896 42.0662 45.8896C38.3856 45.8896 35.4043 48.7815 35.4043 52.3518ZM74.8606 64.0266C67.6466 64.0266 61.7944 69.7034 61.7944 76.7011C61.7944 83.6988 67.6466 89.3755 74.8606 89.3755C82.0746 89.3755 87.9268 83.6988 87.9268 76.7011C87.9268 69.7034 82.0746 64.0266 74.8606 64.0266ZM74.8606 83.1633C71.18 83.1633 68.1986 80.2714 68.1986 76.7011C68.1986 73.1308 71.18 70.2389 74.8606 70.2389C78.5412 70.2389 81.5225 73.1308 81.5225 76.7011C81.5225 80.2714 78.5412 83.1633 74.8606 83.1633ZM36.6189 89.3755L72.505 39.6774H80.3079L44.4218 89.3755H36.6189Z" fill="#585858"/>
</svg>
