<svg xmlns="http://www.w3.org/2000/svg" width="138" height="62" fill="none" viewBox="0 0 138 62">
  <path fill="#585858" d="M12.48 21.656c1.888 0 3.552.408 4.992 1.224a8.484 8.484 0 0 1 3.336 3.384c.784 1.44 1.176 3.072 1.176 4.896 0 1.872-.6 3.6-1.8 5.184a13.032 13.032 0 0 1-4.416 3.768c-1.76.912-3.424 1.368-4.992 1.368-1.872 0-3.528-.4-4.968-1.2a8.695 8.695 0 0 1-3.336-3.384c-.784-1.44-1.176-3.072-1.176-4.896 0-1.872.592-3.6 1.776-5.184a12.688 12.688 0 0 1 4.416-3.768c1.76-.928 3.424-1.392 4.992-1.392Zm-1.392 3c-.848 0-1.624.272-2.328.816-.704.528-1.264 1.264-1.68 2.208-.4.944-.6 2-.6 3.168 0 1.408.208 2.688.624 3.84C7.52 35.84 8.152 36.76 9 37.448c.864.688 1.92 1.032 3.168 1.032.848 0 1.624-.264 2.328-.792.704-.544 1.264-1.288 1.68-2.232.416-.944.624-2 .624-3.168 0-1.408-.208-2.688-.624-3.84-.416-1.168-1.056-2.088-1.92-2.76-.864-.688-1.92-1.032-3.168-1.032Zm33.305 16.32H38.97l-4.416-8.232-1.032-.624.648-1.296h1.056c.784 0 1.4-.264 1.848-.792.464-.528.696-1.264.696-2.208 0-1.072-.288-1.944-.864-2.616-.56-.688-1.384-1.032-2.472-1.032-.688 0-1.32.2-1.896.6V38.48l2.712.744-.864 1.752H25.53V39.44l2.256-1.944V24.56l-2.688-.72.864-1.728h4.344c1.36 0 2.712-.048 4.056-.144.96-.064 1.672-.096 2.136-.096 1.264 0 2.384.224 3.36.672.992.432 1.752 1.032 2.28 1.8.544.752.816 1.6.816 2.544 0 1.104-.48 2.136-1.44 3.096-.96.944-2.152 1.672-3.576 2.184l2.016.552 2.928 5.424 2.4 1.08-.888 1.752Zm21.777-4.272.648 1.56-4.416 2.712c-.816.224-1.6.368-2.352.432-.752.064-1.56.096-2.424.096-1.968 0-3.712-.408-5.232-1.224-1.504-.816-2.68-1.936-3.528-3.36-.832-1.44-1.248-3.072-1.248-4.896 0-1.872.616-3.6 1.848-5.184a13.269 13.269 0 0 1 4.632-3.768c1.856-.928 3.616-1.392 5.28-1.392 1.04 0 2.248.12 3.624.36s2.384.496 3.024.768v6.024h-2.664c-1.328-2.768-3.12-4.152-5.376-4.152-.96 0-1.84.272-2.64.816-.784.528-1.408 1.264-1.872 2.208-.448.944-.672 2-.672 3.168 0 1.392.224 2.664.672 3.816.448 1.152 1.136 2.072 2.064 2.76.928.688 2.072 1.032 3.432 1.032h.84c.496 0 1.024-.032 1.584-.096V33.92l-3.888-.936.864-1.728h10.056v1.512L66.17 34.76v1.944ZM86.767 41H71.383v-1.536l2.256-1.776V24.632l-2.688-.768.864-1.728h14.712l1.872-.432v6.288l-1.512.648-2.976-4.44h-5.52v6.144h2.592l1.752-2.592h1.536v6.912l-1.752.864-1.584-3.144H78.39v6.552h5.304l3.432-4.92 1.512.624v6.792L86.767 41Zm16.974-19.344c1.888 0 3.552.408 4.992 1.224a8.484 8.484 0 0 1 3.336 3.384c.784 1.44 1.176 3.072 1.176 4.896 0 1.872-.6 3.6-1.8 5.184a13.032 13.032 0 0 1-4.416 3.768c-1.76.912-3.424 1.368-4.992 1.368-1.872 0-3.528-.4-4.968-1.2a8.695 8.695 0 0 1-3.336-3.384c-.784-1.44-1.176-3.072-1.176-4.896 0-1.872.592-3.6 1.776-5.184a12.688 12.688 0 0 1 4.416-3.768c1.76-.928 3.424-1.392 4.992-1.392Zm-1.392 3c-.848 0-1.624.272-2.328.816-.704.528-1.264 1.264-1.68 2.208-.4.944-.6 2-.6 3.168 0 1.408.208 2.688.624 3.84.416 1.152 1.048 2.072 1.896 2.76.864.688 1.92 1.032 3.168 1.032.848 0 1.624-.264 2.328-.792.704-.544 1.264-1.288 1.68-2.232.416-.944.624-2 .624-3.168 0-1.408-.208-2.688-.624-3.84-.416-1.168-1.056-2.088-1.92-2.76-.864-.688-1.92-1.032-3.168-1.032Zm32.489 1.008v15.384h-2.304l-11.208-12.384V38l3.696 1.272-.864 1.752h-7.368v-1.536l2.256-1.944V25.4l-2.688-1.536.864-1.728h4.392l10.92 12.024v-9.024l-3.648-1.272.864-1.728h7.368v1.56l-2.28 1.968Z"/>
  <path fill="#fff" d="m14.22 20.965 4.786 2.625L8.931 41.958l-4.786-2.626z"/>
</svg>