<svg width="182" height="132" viewBox="0 0 182 132" fill="none" xmlns="http://www.w3.org/2000/svg">
<g clip-path="url(#clip0_2407_3866)">
<path d="M31.6502 38.4155C31.4997 38.4157 31.3554 38.485 31.249 38.6083C31.1425 38.7316 31.0827 38.8988 31.0825 39.0732V72.4973C31.0827 72.6717 31.1425 72.8388 31.249 72.9621C31.3554 73.0854 31.4997 73.1548 31.6502 73.155H44.6168C45.3194 73.1559 45.993 73.4798 46.4898 74.0554C46.9867 74.6311 47.2661 75.4116 47.2669 76.2257V85.3055C47.2669 85.4337 47.2992 85.5591 47.36 85.6663C47.4207 85.7734 47.5071 85.8577 47.6086 85.9087C47.7101 85.9597 47.8223 85.9753 47.9313 85.9534C48.0403 85.9315 48.1415 85.8733 48.2223 85.7857L59.1151 73.9827C59.6056 73.45 60.253 73.154 60.9253 73.155H143.774C143.924 73.1548 144.069 73.0854 144.175 72.9621C144.281 72.8388 144.341 72.6717 144.341 72.4973V39.0722C144.341 38.8978 144.281 38.7307 144.175 38.6074C144.069 38.4841 143.924 38.4148 143.774 38.4146L31.6502 38.4155Z" fill="white"/>
<path d="M46.0103 45.789V54.9571C46.0103 55.8411 45.7072 56.689 45.1678 57.3141C44.6283 57.9392 43.8965 58.2903 43.1336 58.2903H39.5372V68.5412C39.5372 68.6959 39.4842 68.8443 39.3898 68.9536C39.2955 69.063 39.1675 69.1244 39.034 69.1244H35.0053C34.8718 69.1244 34.7438 69.063 34.6495 68.9536C34.5551 68.8443 34.5021 68.6959 34.5021 68.5412V43.0387C34.5021 42.9621 34.5151 42.8863 34.5404 42.8155C34.5657 42.7448 34.6027 42.6806 34.6495 42.6264C34.6962 42.5723 34.7517 42.5293 34.8127 42.5C34.8738 42.4707 34.9392 42.4556 35.0053 42.4556H43.1334C43.5113 42.4555 43.8854 42.5417 44.2346 42.7092C44.5837 42.8767 44.9009 43.1223 45.1681 43.4318C45.4353 43.7414 45.6473 44.1089 45.7919 44.5134C45.9365 44.9179 46.011 45.3514 46.011 45.7892L46.0103 45.789ZM39.5367 54.1234H40.2559C40.4467 54.1234 40.6297 54.0356 40.7646 53.8793C40.8995 53.7229 40.9753 53.5109 40.9753 53.2898V47.4559C40.9753 47.3465 40.9567 47.2381 40.9206 47.1369C40.8844 47.0358 40.8314 46.9439 40.7646 46.8665C40.6978 46.7891 40.6185 46.7277 40.5312 46.6859C40.4439 46.644 40.3503 46.6225 40.2559 46.6225H39.5372L39.5367 54.1234Z" fill="#585858"/>
<path d="M55.7917 42.4541C56.1695 42.4541 56.5436 42.5403 56.8927 42.7078C57.2418 42.8753 57.559 43.1208 57.8262 43.4304C58.0934 43.7399 58.3053 44.1075 58.45 44.512C58.5946 44.9165 58.669 45.3499 58.669 45.7878V65.7896C58.669 66.6737 58.3658 67.5217 57.8262 68.1468C57.2865 68.772 56.5547 69.1232 55.7917 69.1232H50.0379C49.2748 69.1232 48.543 68.772 48.0035 68.1468C47.4639 67.5216 47.1608 66.6737 47.1608 65.7896V45.7878C47.1608 44.9036 47.4639 44.0557 48.0034 43.4306C48.5429 42.8054 49.2747 42.4542 50.0377 42.4541H55.7917ZM53.6341 47.455C53.6341 47.234 53.5583 47.0221 53.4234 46.8658C53.2886 46.7095 53.1056 46.6218 52.9149 46.6218C52.7242 46.6218 52.5413 46.7095 52.4064 46.8658C52.2715 47.0221 52.1958 47.234 52.1958 47.455V64.1233C52.1958 64.3443 52.2715 64.5562 52.4064 64.7124C52.5413 64.8687 52.7242 64.9566 52.9149 64.9566C53.1056 64.9566 53.2886 64.8687 53.4234 64.7124C53.5583 64.5562 53.6341 64.3443 53.6341 64.1233V47.455Z" fill="#585858"/>
<path d="M71.2952 65.7896C71.2952 66.6738 70.992 67.5218 70.4524 68.147C69.9127 68.7722 69.1809 69.1234 68.4178 69.1234H60.2897C60.1562 69.1233 60.0283 69.0619 59.934 68.9525C59.8397 68.8432 59.7867 68.6949 59.7866 68.5403V43.0373C59.7866 42.8827 59.8395 42.7344 59.9338 42.6251C60.0281 42.5157 60.1561 42.4542 60.2895 42.4541H68.4176C69.1807 42.4541 69.9126 42.8054 70.4522 43.4307C70.9919 44.0559 71.295 44.9039 71.295 45.7881L71.2952 65.7896ZM64.8213 64.9567H65.5408C65.7315 64.9567 65.9145 64.8688 66.0494 64.7125C66.1842 64.5562 66.2601 64.3442 66.2601 64.1231V47.455C66.2601 47.3456 66.2415 47.2372 66.2054 47.136C66.1692 47.0349 66.1163 46.943 66.0495 46.8655C65.9827 46.7881 65.9034 46.7267 65.8161 46.6848C65.7288 46.6429 65.6352 46.6214 65.5408 46.6214H64.8213V64.9567Z" fill="#585858"/>
<path d="M72.4131 65.7902V45.7876C72.4131 44.9036 72.7161 44.0559 73.2554 43.4308C73.7948 42.8056 74.5264 42.4543 75.2892 42.4541H81.0433C81.8065 42.4541 82.5384 42.8054 83.0781 43.4307C83.6177 44.0559 83.9209 44.904 83.9209 45.7883V51.0385C83.9209 51.1151 83.9079 51.1909 83.8826 51.2616C83.8573 51.3324 83.8202 51.3967 83.7735 51.4508C83.7268 51.505 83.6713 51.5479 83.6103 51.5772C83.5492 51.6065 83.4838 51.6216 83.4177 51.6216H79.3888C79.3227 51.6216 79.2573 51.6065 79.1962 51.5772C79.1352 51.5479 79.0797 51.505 79.033 51.4508C78.9863 51.3967 78.9492 51.3324 78.9239 51.2616C78.8986 51.1909 78.8856 51.1151 78.8856 51.0385V47.4899C78.8884 47.269 78.8175 47.0554 78.6876 46.8937C78.5578 46.7319 78.3791 46.6345 78.1888 46.6218C78.0924 46.6183 77.9965 46.6373 77.9066 46.6777C77.8168 46.718 77.7348 46.7788 77.6656 46.8565C77.5964 46.9342 77.5414 47.0272 77.5038 47.1301C77.4662 47.2329 77.4468 47.3434 77.4468 47.455V64.0882C77.444 64.3093 77.515 64.523 77.645 64.6848C77.775 64.8465 77.954 64.9437 78.1445 64.9561C78.2408 64.9595 78.3366 64.9405 78.4264 64.9001C78.5163 64.8597 78.5982 64.7989 78.6673 64.7212C78.7364 64.6435 78.7914 64.5504 78.8289 64.4476C78.8663 64.3448 78.8856 64.2343 78.8856 64.1226V60.5391C78.8856 60.3844 78.9386 60.2361 79.033 60.1268C79.1274 60.0174 79.2553 59.956 79.3888 59.956H83.4178C83.4839 59.956 83.5494 59.971 83.6104 60.0003C83.6715 60.0296 83.727 60.0725 83.7737 60.1267C83.8205 60.1808 83.8575 60.2451 83.8828 60.3158C83.9081 60.3866 83.9211 60.4625 83.9211 60.5391V65.7902C83.9211 66.228 83.8466 66.6615 83.702 67.066C83.5574 67.4704 83.3455 67.8379 83.0783 68.1475C82.8112 68.457 82.494 68.7026 82.1449 68.8701C81.7958 69.0376 81.4217 69.1239 81.0438 69.1239H75.2897C74.9119 69.1239 74.5377 69.0377 74.1886 68.8702C73.8395 68.7027 73.5223 68.4571 73.2551 68.1476C72.9879 67.838 72.776 67.4705 72.6314 67.066C72.4868 66.6615 72.4124 66.228 72.4125 65.7902H72.4131Z" fill="#585858"/>
<path d="M91.9217 64.9568H89.7469L89.4331 68.5986C89.4207 68.7425 89.3626 68.876 89.27 68.973C89.1775 69.0701 89.0571 69.1238 88.9323 69.1238H85.6421C85.5707 69.1238 85.5001 69.1062 85.4351 69.0722C85.37 69.0382 85.312 68.9886 85.2648 68.9266C85.2175 68.8646 85.1822 68.7917 85.1612 68.7126C85.1401 68.6336 85.1338 68.5503 85.1427 68.4682L87.8942 42.9656C87.9094 42.8246 87.9686 42.695 88.0605 42.601C88.1524 42.507 88.2708 42.4551 88.3934 42.4551H93.2589C93.3815 42.4551 93.4999 42.507 93.5918 42.601C93.6837 42.695 93.7428 42.8247 93.758 42.9656L96.5096 68.4682C96.5185 68.5503 96.5122 68.6336 96.4912 68.7126C96.4702 68.7917 96.4349 68.8646 96.3876 68.9266C96.3404 68.9886 96.2823 69.0383 96.2172 69.0723C96.1522 69.1063 96.0816 69.1238 96.0102 69.1238H92.7226C92.5974 69.1238 92.4768 69.0698 92.3841 68.9722C92.2915 68.8746 92.2336 68.7405 92.2217 68.5961L91.9217 64.9568ZM91.5107 59.9562L90.8254 51.6216L90.1405 59.9562H91.5107Z" fill="#585858"/>
<path d="M102.733 50.3731C102.726 51.1503 102.984 51.8992 103.452 52.4561L108.487 58.2905C108.722 58.564 108.906 58.8895 109.03 59.2474C109.153 59.6053 109.214 59.9883 109.207 60.3738V65.7911C109.207 66.6753 108.903 67.5233 108.364 68.1485C107.824 68.7737 107.092 69.1249 106.329 69.1249H100.575C100.197 69.1249 99.8231 69.0387 99.474 68.8712C99.125 68.7036 98.8078 68.4581 98.5406 68.1485C98.2735 67.8389 98.0616 67.4713 97.917 67.0669C97.7724 66.6624 97.698 66.2289 97.698 65.7911V60.5405C97.698 60.3859 97.751 60.2376 97.8454 60.1282C97.9398 60.0189 98.0678 59.9575 98.2012 59.9575H102.23C102.363 59.9575 102.491 60.0189 102.586 60.1282C102.68 60.2376 102.733 60.3859 102.733 60.5405V64.0962C102.731 64.3022 102.793 64.5024 102.908 64.6595C103.023 64.8166 103.183 64.9201 103.359 64.9509C103.46 64.9663 103.563 64.9564 103.661 64.9219C103.759 64.8875 103.849 64.8292 103.926 64.751C104.003 64.6728 104.065 64.5765 104.107 64.4685C104.149 64.3605 104.171 64.2433 104.171 64.1248V61.2077C104.179 60.4302 103.92 59.6808 103.452 59.1238L98.4175 53.2896C97.9508 52.7316 97.6924 51.9833 97.698 51.2064V45.789C97.698 45.3513 97.7724 44.9178 97.917 44.5134C98.0615 44.1089 98.2734 43.7415 98.5405 43.4319C98.8077 43.1224 99.1248 42.8769 99.4738 42.7093C99.8229 42.5418 100.197 42.4556 100.575 42.4556H106.329C107.092 42.4556 107.824 42.8068 108.364 43.4321C108.903 44.0574 109.206 44.9055 109.206 45.7898V51.0393C109.206 51.1939 109.153 51.3422 109.059 51.4515C108.965 51.5609 108.837 51.6223 108.703 51.6223H104.675C104.541 51.6223 104.413 51.5609 104.319 51.4515C104.224 51.3422 104.171 51.1939 104.171 51.0393V47.4912C104.174 47.2703 104.103 47.0566 103.973 46.8949C103.843 46.7331 103.665 46.6357 103.474 46.623C103.378 46.6195 103.282 46.6385 103.192 46.6788C103.102 46.719 103.02 46.7799 102.951 46.8576C102.882 46.9352 102.827 47.0282 102.789 47.131C102.752 47.2339 102.732 47.3443 102.732 47.4559L102.733 50.3731Z" fill="#585858"/>
<path d="M121.865 43.0386V46.0393C121.865 46.194 121.812 46.3423 121.718 46.4516C121.623 46.5609 121.495 46.6224 121.362 46.6224H118.628V68.5413C118.628 68.6179 118.615 68.6937 118.59 68.7644C118.564 68.8352 118.527 68.8995 118.481 68.9536C118.434 69.0077 118.378 69.0506 118.317 69.0799C118.256 69.1092 118.191 69.1243 118.125 69.1243H114.096C114.03 69.1243 113.965 69.1093 113.904 69.08C113.843 69.0507 113.787 69.0077 113.741 68.9536C113.694 68.8995 113.657 68.8352 113.631 68.7645C113.606 68.6938 113.593 68.6179 113.593 68.5413V46.6222H110.86C110.726 46.6222 110.598 46.5608 110.504 46.4514C110.41 46.3421 110.357 46.1938 110.357 46.0391V43.0383C110.357 42.9617 110.37 42.886 110.395 42.8152C110.42 42.7444 110.457 42.6801 110.504 42.6259C110.551 42.5718 110.606 42.5288 110.667 42.4995C110.728 42.4702 110.794 42.4551 110.86 42.4551H121.362C121.428 42.4551 121.493 42.4702 121.554 42.4995C121.616 42.5288 121.671 42.5718 121.718 42.6259C121.765 42.6801 121.802 42.7445 121.827 42.8153C121.852 42.8861 121.865 42.962 121.865 43.0386V43.0386Z" fill="#585858"/>
<path d="M130.751 69.0966H123.486C123.352 69.0966 123.224 69.0351 123.13 68.9258C123.036 68.8164 122.983 68.6681 122.983 68.5135V43.0105C122.983 42.9339 122.996 42.8581 123.021 42.7874C123.046 42.7166 123.083 42.6523 123.13 42.5981C123.177 42.5439 123.232 42.501 123.293 42.4716C123.354 42.4423 123.42 42.4272 123.486 42.4272H127.514C127.647 42.4273 127.775 42.4888 127.87 42.5982C127.964 42.7076 128.017 42.8558 128.017 43.0105V64.9297H130.751C130.817 64.9297 130.882 64.9448 130.943 64.9741C131.004 65.0034 131.06 65.0463 131.107 65.1005C131.153 65.1546 131.19 65.2189 131.216 65.2897C131.241 65.3604 131.254 65.4362 131.254 65.5128V68.5135C131.254 68.5901 131.241 68.6659 131.216 68.7367C131.19 68.8074 131.153 68.8717 131.107 68.9259C131.06 68.98 131.004 69.0229 130.943 69.0522C130.882 69.0815 130.817 69.0967 130.751 69.0966Z" fill="#585858"/>
<path d="M132.889 42.4541H140.514C140.647 42.4541 140.775 42.5155 140.87 42.6248C140.964 42.7341 141.017 42.8824 141.017 43.037V46.0383C141.017 46.1149 141.004 46.1907 140.979 46.2615C140.953 46.3322 140.916 46.3965 140.87 46.4506C140.823 46.5048 140.767 46.5476 140.706 46.5769C140.645 46.6062 140.58 46.6213 140.514 46.6212H137.421V53.2887H140.514C140.647 53.2887 140.775 53.3501 140.87 53.4595C140.964 53.5688 141.017 53.7171 141.017 53.8718V57.7066C141.017 57.8612 140.964 58.0095 140.87 58.1189C140.775 58.2282 140.647 58.2896 140.514 58.2896H137.421V64.9568H140.513C140.647 64.9568 140.775 65.0182 140.869 65.1275C140.964 65.2369 141.017 65.3852 141.017 65.5398V68.5405C141.017 68.6171 141.004 68.693 140.978 68.7637C140.953 68.8345 140.916 68.8988 140.869 68.9529C140.822 69.0071 140.767 69.05 140.706 69.0793C140.645 69.1086 140.579 69.1236 140.513 69.1236H132.888C132.755 69.1236 132.627 69.0622 132.532 68.9528C132.438 68.8435 132.385 68.6952 132.385 68.5405V43.0377C132.385 42.961 132.398 42.885 132.423 42.8141C132.448 42.7432 132.486 42.6788 132.532 42.6246C132.579 42.5704 132.635 42.5274 132.696 42.4981C132.757 42.4689 132.823 42.4539 132.889 42.4541V42.4541Z" fill="#585858"/>
<path d="M152.18 44.4729L145.657 36.9141L145.635 36.889L145.62 36.8718V36.8733C145.127 36.3137 144.464 36.0005 143.774 36.0005H31.6501C30.9474 36.0014 30.2738 36.3252 29.777 36.9009C29.2802 37.4766 29.0007 38.2572 29 39.0713V72.4954C29.0001 72.9557 29.0898 73.4101 29.2622 73.8248C29.4347 74.2395 29.6856 74.6038 29.9962 74.8908L36.1534 82.025C36.4011 82.3869 36.7162 82.6793 37.0752 82.8803C37.4341 83.0813 37.8276 83.1857 38.2263 83.1857H45.1842V85.3035C45.1813 85.7304 45.2564 86.1532 45.4044 86.5442C45.5525 86.9351 45.7702 87.2853 46.0433 87.5718L52.4135 94.9528C52.6666 95.2804 52.9761 95.543 53.3222 95.7235C53.6682 95.904 54.043 95.9985 54.4225 96.0008C55.0917 95.9987 55.7348 95.7001 56.22 95.1662L67.113 83.3631C67.2181 83.2489 67.3568 83.1855 67.5009 83.1857H150.35C151.053 83.1848 151.726 82.861 152.223 82.2854C152.72 81.7097 152.999 80.9292 153 80.1151V46.6903C153 46.2756 152.928 45.8653 152.787 45.4841C152.646 45.1029 152.44 44.7589 152.18 44.4729V44.4729ZM44.6166 73.1521H31.6499C31.4994 73.1519 31.3552 73.0826 31.2488 72.9594C31.1424 72.8361 31.0825 72.669 31.0823 72.4946V39.0705C31.0824 38.8961 31.1422 38.7289 31.2487 38.6055C31.3551 38.4822 31.4994 38.4129 31.6499 38.4127H143.774C143.924 38.4129 144.068 38.4822 144.175 38.6055C144.281 38.7289 144.341 38.8961 144.341 39.0705V72.4946C144.341 72.669 144.281 72.8361 144.175 72.9594C144.068 73.0826 143.924 73.1519 143.774 73.1521H60.9252C60.2529 73.151 59.6055 73.4471 59.1151 73.98L48.222 85.783C48.1412 85.8706 48.0401 85.9289 47.931 85.9507C47.822 85.9726 47.7098 85.957 47.6083 85.906C47.5068 85.8549 47.4204 85.7706 47.3597 85.6634C47.299 85.5562 47.2666 85.4307 47.2667 85.3025V76.2227C47.2659 75.4086 46.9864 74.6281 46.4896 74.0525C45.9928 73.4768 45.3192 73.153 44.6166 73.1521V73.1521Z" fill="#585858"/>
</g>
<defs>
<clipPath id="clip0_2407_3866">
<rect width="124" height="60" fill="white" transform="translate(29 36)"/>
</clipPath>
</defs>
</svg>
