<svg width="204" height="137" viewBox="0 0 204 137" fill="none" xmlns="http://www.w3.org/2000/svg">
<path fill-rule="evenodd" clip-rule="evenodd" d="M29.2203 36.024C30.6813 36.024 32.1093 36.0164 33.5172 36.0113C36.5961 35.9987 39.5738 35.986 42.5515 36.0367C46.1875 36.0974 49.826 36.1962 53.4646 36.295C56.0397 36.3634 58.6173 36.4343 61.1974 36.49C63.7877 36.5457 66.3805 36.5736 68.9733 36.6014C74.5767 36.6597 80.1801 36.7205 85.7658 37.0624C88.703 37.2422 91.6148 37.7868 94.5317 38.3338C96.5403 38.7299 98.5601 39.0669 100.588 39.3444C102.994 39.6483 105.48 39.5242 107.903 39.2988C108.691 39.2228 109.461 38.9619 110.23 38.6985C110.97 38.4453 111.709 38.1945 112.466 38.1084C113.231 38.0223 114.365 38.5795 114.818 39.2177C115.143 39.6787 114.899 40.9982 114.439 41.4972C111.463 44.7137 107.557 46.0763 103.318 46.1092C100.393 46.127 98.54 46.7373 96.841 49.5284C89.9614 60.8243 82.9401 72.0366 75.9212 83.2489C72.6093 88.5422 69.2949 93.8305 65.9982 99.1289C64.7955 101.064 63.1496 101.512 61.4177 100.408C59.0882 98.9238 56.9487 97.1256 54.8268 95.3425L54.6825 95.221C54.2875 94.8917 54.0242 93.7951 54.2647 93.4126C54.6166 92.858 54.9306 92.2704 55.2471 91.6777C56.3815 89.5629 57.526 87.4329 60.2859 86.863C64.9271 85.9031 67.9149 82.8614 70.3204 79.0623C76.9543 68.5819 83.5883 58.0991 90.207 47.6061C90.5134 47.1223 90.7742 46.6056 91.116 45.9269C91.3059 45.547 91.5237 45.1164 91.7895 44.6099C90.9499 44.4675 90.1147 44.2995 89.2854 44.1059C87.518 43.7108 85.8367 43.3359 84.2213 43.5259C82.3045 43.7538 80.4435 44.4098 78.5748 45.0658C77.5316 45.433 76.4834 45.8002 75.425 46.0966C75.0452 46.2004 74.6653 46.3118 74.2779 46.4258C72.5283 46.9374 70.7483 47.4566 68.9835 47.4566C62.8914 47.4541 56.7993 47.2717 50.7072 47.0919C49.1348 47.0448 47.5624 46.9992 45.99 46.9552L44.7316 46.9197C40.7208 46.8108 36.705 46.7044 32.7044 46.4157C31.8891 46.3574 30.6939 45.4533 30.461 44.6985C29.9875 43.1738 29.7166 41.5884 29.4102 39.8155C29.2836 39.0784 29.1545 38.3085 29 37.498L29.2203 36.024ZM93.7291 40.1979L93.8354 39.9117L93.9418 39.628C93.4151 39.5115 92.891 39.3697 92.3643 39.2304C91.23 38.9265 90.0956 38.6225 88.9461 38.5516C81.988 38.1211 75.0198 37.8171 68.0517 37.5158C64.1463 37.3467 60.2391 37.2251 56.3308 37.151C48.8958 36.9983 41.4599 36.8885 34.0236 36.8218C33.2319 36.8498 32.4724 37.1423 31.8663 37.6525C31.6434 37.8425 31.9777 38.891 32.2815 39.4204C32.6006 39.9775 33.0107 40.4765 33.4792 41.0489C33.6893 41.3047 33.9096 41.5757 34.14 41.872C35.8542 39.0886 38.5585 38.9898 40.4296 40.1751C42.4173 41.4313 43.9897 40.9678 45.7773 40.4385C46.0887 40.3473 46.4052 40.2536 46.7319 40.165C47.7827 41.9834 49.2589 41.753 50.9503 40.9071C51.4491 40.6588 52.3834 40.7044 52.8189 41.0261C54.1356 42.0012 55.6497 42.105 57.1614 42.2114C58.3691 42.2924 59.5744 42.376 60.6758 42.9028C61.0025 43.0548 61.6709 42.9104 61.952 42.6546C63.4965 41.2236 64.841 41.7302 66.1881 43.2549C67.2794 40.1219 69.4797 40.1143 71.8447 40.1092C72.5739 40.1092 73.3208 40.1067 74.0551 40.013C72.8322 42.0797 73.9209 42.609 74.916 43.0953C75.4098 43.3359 75.8782 43.5639 76.0403 43.9615C76.9822 43.5537 77.8886 43.1105 78.785 42.6749C80.7828 41.7023 82.7046 40.7652 84.7353 40.3347C86.7432 39.9092 88.8574 40.0105 90.9692 40.1092C91.8934 40.1548 92.8175 40.1979 93.7291 40.1979ZM112.818 39.9699C111.978 40.051 111.119 40.1295 110.251 40.208C107.519 40.4562 104.665 40.7146 101.822 41.0438C101.363 41.0945 100.93 41.3908 100.5 41.6846C100.309 41.8189 100.112 41.9448 99.9098 42.062C100.112 42.1937 100.307 42.3608 100.507 42.5255C100.93 42.8826 101.356 43.2371 101.796 43.2599C106.045 43.455 109.921 42.3558 112.818 39.9725V39.9699ZM48.755 45.7876C48.7374 45.7574 48.7188 45.7279 48.6993 45.6989C46.6331 45.5976 44.5645 45.4988 42.4983 45.4026L36.0087 45.0911L35.9935 45.4406L35.9808 45.7876H48.7525H48.755ZM143.281 75.0302C139.893 75.0505 138.506 73.8272 137.918 70.1117C144.094 73.3308 149.135 71.1374 150.642 64.7677C151.242 62.1995 150.71 59.9707 148.647 58.2713C146.661 56.6377 144.451 56.8783 142.276 57.8534C138.263 59.6643 135.974 63.015 134.252 66.9053C133.733 68.0703 133.1 69.1898 132.467 70.3092C132.181 70.8082 131.897 71.3097 131.624 71.8162C131.71 70.9146 131.821 70.0332 131.933 69.1645C132.178 67.2143 132.414 65.3299 132.343 63.4633C132.239 60.8749 130.905 58.6765 128.205 57.8357C125.562 57.0075 123.521 58.1472 121.908 60.1961C121.247 61.0294 120.617 61.8855 119.915 62.8378C119.589 63.281 119.247 63.747 118.877 64.2409L119.153 62.972C119.328 62.1869 119.475 61.5081 119.596 60.8243C120.009 58.479 119.234 56.7922 117.589 56.3794C115.872 55.9488 114.601 57.0277 113.973 59.4515C113.932 59.6111 113.904 59.7782 113.879 59.9429C113.859 60.0752 113.836 60.207 113.808 60.338L113.682 60.9306C112.659 65.7377 111.633 70.5473 107.959 74.2172C107.44 74.7314 106.827 75.1518 106.212 75.5722C105.931 75.7622 105.65 75.9547 105.376 76.1573L104.478 75.5747C104.637 74.896 104.779 74.2122 104.923 73.5283C105.245 71.9834 105.569 70.4384 106.083 68.9568C106.739 67.0724 107.172 65.3882 105.45 63.9294C108.126 61.6677 108.093 60.1961 105.503 58.251C101.867 55.5258 97.6943 55.7918 95.0711 59.5858C93.1594 62.354 91.749 65.6389 90.8729 68.8935C90.2475 71.2236 90.3615 74.045 91.0629 76.37C92.0782 79.7385 95.623 80.1463 98.0158 77.5097C98.507 76.9703 98.935 76.3802 99.297 75.8812C99.449 75.6761 99.5857 75.4861 99.7123 75.3215C100.016 75.7065 100.295 76.1193 100.573 76.5271C101.191 77.4414 101.794 78.3354 102.632 78.8521C103.5 79.3941 104.619 79.5258 105.549 79.6372C105.908 79.6777 106.24 79.7183 106.516 79.7765C106.172 81.0074 105.815 82.2484 105.458 83.4945C104.46 86.9795 103.445 90.5152 102.596 94.0939C102.361 95.0943 103.022 97.1078 103.708 97.3358C104.84 97.7157 106.734 97.4725 107.587 96.695C109.202 95.2286 110.767 93.3772 111.529 91.3662C113.041 87.4 114.33 83.3502 115.553 79.5106C116.029 78.0163 116.495 76.5498 116.961 75.1366C117.733 79.3738 119.867 80.6123 124.417 78.4013C126.567 77.3552 128.588 76.0484 130.585 74.7567C131.469 74.1868 132.345 73.617 133.229 73.0775C134.363 79.5866 139.678 82.1446 145.74 79.0395C149.783 76.9813 153.21 73.8898 155.673 70.0788C157.104 67.8956 158.428 65.9758 161.474 67.3105C161.806 67.4549 162.218 67.4118 162.606 67.3738C162.778 67.3561 162.945 67.3384 163.099 67.3384C163.099 68.1362 163.072 68.934 163.044 69.7242C162.978 71.5984 162.915 73.4397 163.221 75.2176C163.459 76.6056 164.809 78.6115 165.933 78.8166C167.249 79.0572 169.265 77.9935 170.27 76.8639C171.587 75.3797 172.584 73.6018 173.574 71.8314C173.838 71.3603 174.101 70.8918 174.37 70.4283C174.625 69.9851 174.734 69.4557 174.84 68.9264C174.889 68.6883 174.937 68.4502 175 68.2198L174.732 68.0627L174.466 67.9082C173.595 68.8403 172.901 69.9496 172.2 71.0691C170.792 73.3156 169.354 75.6127 166.399 76.6587C165.842 71.9276 167.044 68.1843 170.04 64.8639C170.685 64.1446 171.146 62.4629 170.744 61.7994C170.23 60.9433 168.799 60.4418 167.677 60.2139C167.161 60.1126 166.586 60.3253 166.004 60.5431C165.703 60.6619 165.395 60.7609 165.082 60.8395C163.806 61.1257 162.522 61.3967 161.499 61.6094L160.408 61.8373C160.183 61.3004 160.01 60.7609 159.848 60.2569C159.517 59.2185 159.236 58.3321 158.635 57.9496C157.64 57.3165 155.896 57.3291 154.68 57.709C153.138 58.1928 152.242 59.7985 152.817 61.3637C153.268 62.5921 153.979 63.7242 154.759 64.9652C155.123 65.5427 155.501 66.1429 155.873 66.7888C154.549 70.061 147.358 75.0125 143.281 75.0302ZM116.948 72.6875C118.556 68.1919 121.483 64.1776 126.294 60.8597C126.418 61.3156 126.577 61.7436 126.724 62.1362C127.018 62.9137 127.263 63.5697 127.094 64.0915L126.818 64.9526C125.777 68.2096 124.726 71.5022 123.156 74.5059C121.744 77.2058 120.166 76.9297 118.675 74.3261C118.485 73.9918 118.168 73.7309 117.74 73.3764C117.47 73.1544 117.205 72.9247 116.948 72.6875ZM98.1602 63.4709C99.6617 61.2092 100.958 61.4093 102.604 63.1721L101.746 64.9652C101.239 66.0163 100.748 67.037 100.262 68.0627C100.016 68.5819 99.7857 69.1113 99.5528 69.6431C98.4741 72.1252 97.3575 74.6908 94.3798 76.5954C94.3621 75.9369 94.2963 75.3139 94.2355 74.7212C94.1089 73.5055 94 72.4317 94.3216 71.5072C95.299 68.7136 96.527 65.9277 98.1602 63.4709ZM144.334 66.5279C142.76 68.4097 140.387 68.6149 137.647 66.9256C137.86 66.495 138.06 66.0492 138.26 65.6035C138.718 64.5803 139.182 63.5495 139.822 62.6402C141.114 60.7812 143.512 60.1708 144.732 61.1105C145.818 61.9513 145.59 65.026 144.334 66.5304V66.5279ZM105.204 94.9272L104.414 94.6967C104.404 90.7837 106.108 87.4734 108.091 84.2619L108.357 84.3506L108.623 84.4392L105.204 94.9246V94.9272Z" fill="#585858"/>
</svg>
