<svg width="406" height="127" viewBox="0 0 406 127" fill="none" xmlns="http://www.w3.org/2000/svg">
<path fill-rule="evenodd" clip-rule="evenodd" d="M33.2032 37.7119C37.6257 34.678 43.4302 35.7812 46.4706 40.1942L70.7941 76.0493C73.8346 80.4622 72.7292 86.2543 68.3067 89.2881C63.8842 92.3221 58.0795 91.2188 55.039 86.8058L30.7156 50.9507C27.6751 46.5378 28.7807 40.7458 33.2032 37.7119ZM71.6238 53.7087C71.6238 48.4683 76.0462 44.0554 81.2978 44.0554C86.5497 44.0554 90.9721 48.4683 90.9721 53.7087C90.9721 58.9492 86.5497 63.3621 81.2978 63.3621C76.0462 63.3621 71.6238 58.9492 71.6238 53.7087Z" fill="#585858"/>
<path fill-rule="evenodd" clip-rule="evenodd" d="M298.095 42.1968H306.218L305.939 49.7749H312.663V57.0723H305.939V70.5446C305.939 73.0704 307.62 73.6318 309.02 73.6318C310.982 73.6318 312.103 72.7897 312.103 72.7897V79.5258C312.103 79.5258 310.701 80.9292 306.5 80.9292C298.051 80.9292 298.087 73.4913 298.095 71.7954V71.667V42.1968ZM143.458 64.3696C143.458 55.6689 150.461 48.3715 159.426 48.3715C168.39 48.3715 175.394 55.3882 175.394 64.3696V67.4571H151.862L152.142 68.0184C153.543 71.1057 156.625 73.3511 160.266 73.3511C163.068 73.3511 165.309 72.2284 166.99 70.2639L172.873 73.3511C169.791 77.5611 165.029 80.3679 159.426 80.3679C150.742 80.3679 143.458 73.3511 143.458 64.3696ZM159.706 55.6689C156.064 55.6689 152.983 57.9143 152.142 61.2823H167.27C166.149 58.1948 163.348 55.6689 159.706 55.6689ZM258.035 48.3715C249.071 48.3715 242.067 55.6689 242.067 64.3696C242.067 73.3511 249.351 80.3679 258.035 80.3679C267 80.3679 274.003 73.0704 274.003 64.3696C274.003 55.3882 267 48.3715 258.035 48.3715ZM258.035 72.2284C253.833 72.2284 250.191 68.8605 250.191 64.3696C250.191 60.1596 253.553 56.5109 258.035 56.5109C262.237 56.5109 265.879 59.8789 265.879 64.3696C265.879 68.5798 262.237 72.2284 258.035 72.2284ZM196.404 48.6521C192.482 48.6521 189.4 50.6168 187.439 53.7042V49.7748H179.315V80.0872H187.439V62.1244C187.439 58.7562 190.241 55.9496 193.602 55.9496C196.964 55.9496 199.205 58.7562 199.205 62.1244V62.4051V79.8065H207.329V61.2823V59.5983C207.329 53.4235 202.567 48.6521 196.404 48.6521ZM331.433 48.3715C322.468 48.3715 315.465 55.6689 315.465 64.3696C315.465 73.3511 322.747 80.3679 331.433 80.3679C337.036 80.3679 341.798 77.5611 344.878 73.3511L338.996 69.9832C337.315 71.9477 335.074 73.0704 332.272 73.0704C328.631 73.0704 325.548 70.825 324.149 67.7377L323.867 67.1764H347.401V64.0889C347.401 55.3882 340.396 48.3715 331.433 48.3715ZM324.149 61.2823C324.988 57.9143 328.071 55.6689 331.712 55.6689C335.355 55.6689 338.154 58.1948 339.275 61.2823H324.149ZM217.975 64.3696C217.975 69.1411 221.897 72.7897 226.379 72.7897C229.181 72.7897 231.982 71.1057 233.383 68.5798L240.106 72.5091C237.305 77.2804 232.262 80.3679 226.379 80.3679C217.695 80.3679 210.412 73.0704 210.412 64.3696C210.412 55.6689 217.695 48.3715 226.379 48.3715C231.702 48.3715 236.745 51.1782 239.546 55.3882L233.103 59.5983C231.702 57.3529 229.181 55.9496 226.379 55.9496C221.617 55.9496 217.975 59.5983 217.975 64.3696ZM376.815 49.7749H368.41L361.407 59.3176L354.404 49.7749H345.999L357.206 64.9312L345.999 79.8065H354.404L361.407 70.5446L368.41 79.8065H376.815L365.608 64.9312L376.815 49.7749ZM295.575 57.9143V49.4942C291.652 49.4942 288.011 51.7395 286.329 55.1076V49.7748H278.205V80.0872H286.329V67.4571C286.329 61.8437 290.532 57.9143 295.575 57.9143ZM133.933 49.7749H143.177L130.571 79.5258V79.8065H122.167V79.5258L109.561 49.7749H118.805L126.369 68.8605L133.933 49.7749Z" fill="#585858"/>
</svg>
